Coordinates
version=1
nRows=10
nColumns=40
inDegrees=yes

Units are S.I. units (second, meters, Newtons, ...)
Angles are in degrees.

endheader
time	pelvis_tilt	pelvis_list	pelvis_rotation	pelvis_tx	pelvis_ty	pelvis_tz	hip_flexion_r	hip_adduction_r	hip_rotation_r	knee_angle_r	knee_angle_r_beta	ankle_angle_r	subtalar_angle_r	mtp_angle_r	hip_flexion_l	hip_adduction_l	hip_rotation_l	knee_angle_l	knee_angle_l_beta	ankle_angle_l	subtalar_angle_l	mtp_angle_l	lumbar_extension	lumbar_bending	lumbar_rotation	arm_flex_r	arm_add_r	arm_rot_r	elbow_flex_r	pro_sup_r	wrist_flex_r	wrist_dev_r	arm_flex_l	arm_add_l	arm_rot_l	elbow_flex_l	pro_sup_l	wrist_flex_l	wrist_dev_l
     15.75000000	     -7.04139958	     -5.90177801	      2.29011344	      1.00765640	      0.90512840	      0.56182990	     19.91555530	      7.64920183	     -5.67604185	     32.04028886	     32.04028886	     18.52224881	    -13.98863059	      1.65824263	     26.63479476	    -14.98713525	      5.06715596	     59.87684551	     59.87684551	     14.37274077	    -19.04365893	     14.25532992	    -11.41173441	      4.23265050	     -0.73716347	     11.87680406	    -15.31495465	     -3.70034116	     34.24009973	     45.82949672	      0.00000000	      0.00000000	      6.06625978	     -8.57166964	      1.11296049	     23.69559355	     46.18396838	      0.00000000	      0.00000000
     15.77285714	     -6.90120319	     -5.95087362	      2.81962750	      1.00612960	      0.90445547	      0.56318717	     19.65078858	      7.81426082	     -5.76550549	     32.17681722	     32.17681722	     18.80714182	    -14.55315129	      1.81947184	     28.53817493	    -14.65984316	      5.94395141	     61.18158522	     61.18158522	     14.70360695	    -19.24243811	     15.91704166	    -11.52984725	      4.18143032	     -0.80957037	     15.28111515	    -15.52706800	     -4.01772594	     36.04632261	     45.80305418	      0.00000000	      0.00000000	      3.11467130	     -8.05674539	      1.73139438	     22.56471101	     45.99605874	      0.00000000	      0.00000000
     15.79571429	     -6.75632871	     -5.91280068	      3.35317579	      1.00451039	      0.90439242	      0.56407765	     19.30745576	      7.81980140	     -5.93656102	     32.19065731	     32.19065731	     19.12994868	    -14.77774303	      2.22033594	     30.31234503	    -14.13827805	      6.64655050	     61.80083976	     61.80083976	     16.04730690	    -19.32486095	     19.89737765	    -11.66388404	      4.03268493	     -0.47993966	     18.52706696	    -15.93557840	     -4.31493353	     37.74921551	     45.77932012	      0.00000000	      0.00000000	     -0.01337425	     -7.82449763	      3.70036273	     23.22398472	     45.47817074	      0.00000000	      0.00000000
     15.81857143	     -6.70988166	     -5.89879448	      3.93208359	      1.00287446	      0.90484365	      0.56457905	     18.90407467	      7.81133690	     -6.19448433	     31.87374563	     31.87374563	     19.17639600	    -14.95701004	      2.35493447	     31.86308903	    -13.72356703	      7.00111746	     61.25799978	     61.25799978	     16.22851589	    -19.40034061	     20.03245175	    -11.67994206	      3.96912650	     -0.20288169	     21.78190432	    -16.29216268	     -4.59047003	     39.58651300	     45.74605233	      0.00000000	      0.00000000	     -2.52280111	     -7.39825257	      4.45769206	     22.65135673	     45.27125165	      0.00000000	      0.00000000
     15.84142857	     -6.66185571	     -5.80958548	      4.57448147	      1.00114093	      0.90580190	      0.56457348	     18.41329138	      7.66429634	     -6.55204796	     31.40012851	     31.40012851	     19.18278303	    -15.02294823	      2.39634423	     33.17398784	    -13.15845148	      7.19677462	     59.85307546	     59.85307546	     16.45340073	    -19.42110156	     20.30030804	    -11.66533398	      3.84967946	      0.15652911	     24.83175492	    -16.91562914	     -4.43232330	     42.08203994	     45.67540357	      0.00000000	      0.00000000	     -6.28348191	     -9.17406925	     17.42801103	     26.64859528	     42.89349317	      0.00000000	      0.00000000
     15.86428571	     -6.70197243	     -5.62511213	      5.18711643	      0.99936924	      0.90721581	      0.56411137	     17.88936533	      7.38443733	     -6.89696046	     30.71638721	     30.71638721	     19.09671809	    -14.93658129	      2.54323525	     34.23293534	    -12.45089389	      7.19262788	     57.55976569	     57.55976569	     16.50256546	    -19.40043198	     20.28399642	    -11.55855664	      3.63831887	      0.63341055	     28.08997592	    -17.42163076	     -4.77980913	     43.92244375	     45.64467705	      0.00000000	      0.00000000	     -8.23126711	     -8.74211342	     17.70516429	     26.31095550	     42.83700171	      0.00000000	      0.00000000
     15.88714286	     -6.82911778	     -5.39188896	      5.89870282	      0.99752719	      0.90871398	      0.56313792	     17.40793875	      6.95459516	     -7.47510080	     29.95216450	     29.95216450	     18.92766126	    -14.66360592	      2.33048237	     35.03798265	    -11.60912914	      7.14142815	     54.39648937	     54.39648937	     15.76489127	    -19.35316931	     18.49267908	    -11.47336567	      3.40842206	      0.52716791	     31.08740843	    -17.59586958	     -5.16669089	     47.25950916	     45.55933199	      0.00000000	      0.00000000	    -11.03304619	     -8.93455980	     18.73401325	     28.39387900	     42.70832938	      0.00000000	      0.00000000
     15.91000000	     -6.91628863	     -5.07207229	      6.58614079	      0.99577664	      0.91061176	      0.56173584	     16.73694495	      6.46415147	     -7.93348393	     28.96555471	     28.96555471	     18.76788958	    -14.42241868	      2.48743317	     35.44944607	    -10.57275851	      7.14425262	     50.63304363	     50.63304363	     15.30020555	    -19.22142791	     18.36924209	    -11.35936024	      3.10989763	      0.85887815	     34.30462535	    -18.05496096	     -5.36813504	     49.03497731	     45.52328391	      0.00000000	      0.00000000	    -12.65490009	     -8.65721107	     19.17647005	     28.30753159	     42.63596590	      0.00000000	      0.00000000
     15.93285714	     -7.02922399	     -4.83779229	      7.30369437	      0.99415170	      0.91217701	      0.56005933	     16.06563004	      5.99985542	     -8.65629980	     27.94199981	     27.94199981	     18.47004467	    -13.98686117	      1.86718199	     35.47440427	     -9.74858885	      6.97872294	     46.06257260	     46.06257260	     12.79770148	    -19.01018062	     13.20297445	    -11.24246908	      2.91717733	      0.88888972	     37.18121826	    -18.45144353	     -5.06915960	     52.32958936	     45.41752627	      0.00000000	      0.00000000	    -15.11627205	     -9.31068360	     21.83206626	     31.26613076	     42.37354857	      0.00000000	      0.00000000
     15.95571429	     -7.15515594	     -4.50771572	      7.99450706	      0.99265586	      0.91366011	      0.55792955	     15.38694587	      5.41908537	     -9.34211881	     26.96721136	     26.96721136	     18.34773702	    -13.45355004	      1.51760787	     35.24316412	     -8.74268828	      6.95256965	     41.30032992	     41.30032992	     10.78972655	    -18.57671385	     10.35490011	    -11.07194933	      2.65238495	      0.98738765	     40.16560289	    -18.73942012	     -5.02000638	     54.75813731	     45.35804796	      0.00000000	      0.00000000	    -16.72194746	     -9.55560260	     24.07720990	     32.34713406	     42.24049207	      0.00000000	      0.00000000
